<svg xmlns="http://www.w3.org/2000/svg"
           viewBox="0 0 20 18.36" fill="#000">

	<path d="M-39.27,52.22l-.35,1.4a1.05,1.05,0,0,1-1.22.77,5.21,5.21,0,0,0-1-.11,2.77,2.77,0,0,0-2.83,3.09v6.34h-2.59V52.2h2.57v1.3a4,4,0,0,1,3.45-1.6,5.33,5.33,0,0,1,2,.32"
	      transform="translate(47.29 -45.36)"/>
	<path d="M-32,54.48v9.24h-2.61V54.48h-1.8a1,1,0,0,1-1-.94V52.2h2.77V49.51c0-2.31,1.2-4.15,4-4.15a6.3,6.3,0,0,1,3.31.87l-.53,2.12a6.51,6.51,0,0,0-2.61-.61c-1,0-1.55.63-1.55,1.78V52.2h4.07v2.29Z"
	      transform="translate(47.29 -45.36)"/>
</svg>